<svg width="3475" height="1736" xmlns="http://www.w3.org/2000/svg" xmlns:xlink="http://www.w3.org/1999/xlink" overflow="hidden"><defs><clipPath id="clip0"><rect x="23" y="992" width="3475" height="1736"/></clipPath><clipPath id="clip1"><rect x="24" y="993" width="3471" height="1732"/></clipPath><clipPath id="clip2"><rect x="24" y="993" width="3471" height="1732"/></clipPath><clipPath id="clip3"><rect x="24" y="993" width="3471" height="1732"/></clipPath><clipPath id="clip4"><rect x="24" y="993" width="3471" height="1732"/></clipPath><clipPath id="clip5"><rect x="293" y="1163" width="3093" height="1258"/></clipPath><clipPath id="clip6"><rect x="24" y="993" width="3471" height="1732"/></clipPath><clipPath id="clip7"><rect x="293" y="1163" width="3093" height="1258"/></clipPath><clipPath id="clip8"><rect x="24" y="993" width="3471" height="1732"/></clipPath><clipPath id="clip9"><rect x="293" y="1163" width="3093" height="1258"/></clipPath><clipPath id="clip10"><rect x="24" y="993" width="3471" height="1732"/></clipPath><clipPath id="clip11"><rect x="293" y="1163" width="3093" height="1258"/></clipPath><clipPath id="clip12"><rect x="24" y="993" width="3471" height="1732"/></clipPath><clipPath id="clip13"><rect x="24" y="993" width="3471" height="1732"/></clipPath><clipPath id="clip14"><rect x="24" y="993" width="3471" height="1732"/></clipPath><clipPath id="clip15"><rect x="24" y="993" width="3471" height="1732"/></clipPath><clipPath id="clip16"><rect x="24" y="993" width="3471" height="1732"/></clipPath><clipPath id="clip17"><rect x="24" y="993" width="3471" height="1732"/></clipPath><clipPath id="clip18"><rect x="24" y="993" width="3471" height="1732"/></clipPath><clipPath id="clip19"><rect x="24" y="993" width="3471" height="1732"/></clipPath><clipPath id="clip20"><rect x="24" y="993" width="3471" height="1732"/></clipPath><clipPath id="clip21"><rect x="24" y="993" width="3471" height="1732"/></clipPath><clipPath id="clip22"><rect x="24" y="993" width="3471" height="1732"/></clipPath><clipPath id="clip23"><rect x="24" y="993" width="3471" height="1732"/></clipPath><clipPath id="clip24"><rect x="24" y="993" width="3471" height="1732"/></clipPath><clipPath id="clip25"><rect x="24" y="993" width="3471" height="1732"/></clipPath><clipPath id="clip26"><rect x="24" y="993" width="3471" height="1732"/></clipPath><clipPath id="clip27"><rect x="24" y="993" width="3471" height="1732"/></clipPath><clipPath id="clip28"><rect x="24" y="993" width="3471" height="1732"/></clipPath><clipPath id="clip29"><rect x="24" y="993" width="3471" height="1732"/></clipPath><clipPath id="clip30"><rect x="24" y="993" width="3471" height="1732"/></clipPath><clipPath id="clip31"><rect x="24" y="993" width="3471" height="1732"/></clipPath><clipPath id="clip32"><rect x="24" y="993" width="3471" height="1732"/></clipPath><clipPath id="clip33"><rect x="24" y="993" width="3471" height="1732"/></clipPath><clipPath id="clip34"><rect x="24" y="993" width="3471" height="1732"/></clipPath><clipPath id="clip35"><rect x="24" y="993" width="3471" height="1732"/></clipPath><clipPath id="clip36"><rect x="24" y="993" width="3471" height="1732"/></clipPath><clipPath id="clip37"><rect x="24" y="993" width="3471" height="1732"/></clipPath><clipPath id="clip38"><rect x="24" y="993" width="3471" height="1732"/></clipPath><clipPath id="clip39"><rect x="24" y="993" width="3471" height="1732"/></clipPath><clipPath id="clip40"><rect x="24" y="993" width="3471" height="1732"/></clipPath><clipPath id="clip41"><rect x="24" y="993" width="3471" height="1732"/></clipPath><clipPath id="clip42"><rect x="24" y="993" width="3471" height="1732"/></clipPath><clipPath id="clip43"><rect x="24" y="993" width="3471" height="1732"/></clipPath><clipPath id="clip44"><rect x="24" y="993" width="3471" height="1732"/></clipPath><clipPath id="clip45"><rect x="24" y="993" width="3471" height="1732"/></clipPath><clipPath id="clip46"><rect x="24" y="993" width="3471" height="1732"/></clipPath></defs><g clip-path="url(#clip0)" transform="translate(-23 -992)"><rect x="24.0001" y="993" width="3472" height="1733" fill="#FFFFFF"/><g clip-path="url(#clip1)"><path d="M293.5 2260.57 3382.5 2260.57M293.5 2103.57 3382.5 2103.57M293.5 1947.56 3382.5 1947.56M293.5 1790.56 3382.5 1790.56M293.5 1633.55 3382.5 1633.55M293.5 1476.55 3382.5 1476.55M293.5 1320.54 3382.5 1320.54M293.5 1163.5 3382.5 1163.5" stroke="#D9D9D9" stroke-width="3.4375" stroke-linejoin="round" stroke-miterlimit="10" fill="none"/></g><g clip-path="url(#clip2)"><path d="M637.521 1163.5 637.521 2417.5M980.532 1163.5 980.532 2417.5M1323.54 1163.5 1323.54 2417.5M1666.55 1163.5 1666.55 2417.5M2009.57 1163.5 2009.57 2417.5M2353.58 1163.5 2353.58 2417.5M2696.59 1163.5 2696.59 2417.5M3039.6 1163.5 3039.6 2417.5M3382.5 1163.5 3382.5 2417.5" stroke="#D9D9D9" stroke-width="3.4375" stroke-linejoin="round" stroke-miterlimit="10" fill="none"/></g><g clip-path="url(#clip3)"><path d="M0 0 0.000360892 1254" stroke="#BFBFBF" stroke-width="3.4375" stroke-linejoin="round" stroke-miterlimit="10" fill="none" fill-rule="evenodd" transform="matrix(1 0 0 -1 293.5 2417.5)"/></g><g clip-path="url(#clip4)"><path d="M293.5 2417.5 3382.5 2417.5" stroke="#BFBFBF" stroke-width="3.4375" stroke-linejoin="round" stroke-miterlimit="10" fill="none" fill-rule="evenodd"/></g><g clip-path="url(#clip5)"><path d="M293.5 2417.5 980.532 2408.58 1666.55 2379.58 2353.58 2331.58 3039.5 2266.5" stroke="#4472C4" stroke-width="6.875" stroke-linecap="round" stroke-linejoin="round" stroke-miterlimit="10" fill="none"/></g><g clip-path="url(#clip6)"><path d="M304.562 2417.94C304.562 2424.01 299.637 2428.94 293.562 2428.94 287.487 2428.94 282.562 2424.01 282.562 2417.94 282.562 2411.86 287.487 2406.94 293.562 2406.94 299.637 2406.94 304.562 2411.86 304.562 2417.94Z" stroke="#4472C4" stroke-width="3.4375" stroke-linejoin="round" stroke-miterlimit="10" fill="#4472C4"/><path d="M991.562 2408.94C991.562 2415.01 986.637 2419.94 980.562 2419.94 974.487 2419.94 969.562 2415.01 969.562 2408.94 969.562 2402.86 974.487 2397.94 980.562 2397.94 986.637 2397.94 991.562 2402.86 991.562 2408.94Z" stroke="#4472C4" stroke-width="3.4375" stroke-linejoin="round" stroke-miterlimit="10" fill="#4472C4"/><path d="M1677.56 2379.94C1677.56 2386.01 1672.64 2390.94 1666.56 2390.94 1660.49 2390.94 1655.56 2386.01 1655.56 2379.94 1655.56 2373.86 1660.49 2368.94 1666.56 2368.94 1672.64 2368.94 1677.56 2373.86 1677.56 2379.94Z" stroke="#4472C4" stroke-width="3.4375" stroke-linejoin="round" stroke-miterlimit="10" fill="#4472C4"/><path d="M2364.56 2331.94C2364.56 2338.01 2359.64 2342.94 2353.56 2342.94 2347.49 2342.94 2342.56 2338.01 2342.56 2331.94 2342.56 2325.86 2347.49 2320.94 2353.56 2320.94 2359.64 2320.94 2364.56 2325.86 2364.56 2331.94Z" stroke="#4472C4" stroke-width="3.4375" stroke-linejoin="round" stroke-miterlimit="10" fill="#4472C4"/><path d="M3050.56 2266.94C3050.56 2273.01 3045.64 2277.94 3039.56 2277.94 3033.49 2277.94 3028.56 2273.01 3028.56 2266.94 3028.56 2260.86 3033.49 2255.94 3039.56 2255.94 3045.64 2255.94 3050.56 2260.86 3050.56 2266.94Z" stroke="#4472C4" stroke-width="3.4375" stroke-linejoin="round" stroke-miterlimit="10" fill="#4472C4"/></g><g clip-path="url(#clip7)"><path d="M293.5 2417.5 980.532 2403.58 1666.55 2359.58 2353.58 2285.58 3039.5 2176.5" stroke="#ED7D31" stroke-width="6.875" stroke-linecap="round" stroke-linejoin="round" stroke-miterlimit="10" fill="none"/></g><g clip-path="url(#clip8)"><path d="M304.562 2417.94C304.562 2424.01 299.637 2428.94 293.562 2428.94 287.487 2428.94 282.562 2424.01 282.562 2417.94 282.562 2411.86 287.487 2406.94 293.562 2406.94 299.637 2406.94 304.562 2411.86 304.562 2417.94Z" stroke="#ED7D31" stroke-width="3.4375" stroke-linejoin="round" stroke-miterlimit="10" fill="#ED7D31"/><path d="M991.562 2403.94C991.562 2410.01 986.637 2414.94 980.562 2414.94 974.487 2414.94 969.562 2410.01 969.562 2403.94 969.562 2397.86 974.487 2392.94 980.562 2392.94 986.637 2392.94 991.562 2397.86 991.562 2403.94Z" stroke="#ED7D31" stroke-width="3.4375" stroke-linejoin="round" stroke-miterlimit="10" fill="#ED7D31"/><path d="M1677.56 2359.94C1677.56 2366.01 1672.64 2370.94 1666.56 2370.94 1660.49 2370.94 1655.56 2366.01 1655.56 2359.94 1655.56 2353.86 1660.49 2348.94 1666.56 2348.94 1672.64 2348.94 1677.56 2353.86 1677.56 2359.94Z" stroke="#ED7D31" stroke-width="3.4375" stroke-linejoin="round" stroke-miterlimit="10" fill="#ED7D31"/><path d="M2364.56 2286.94C2364.56 2293.01 2359.64 2297.94 2353.56 2297.94 2347.49 2297.94 2342.56 2293.01 2342.56 2286.94 2342.56 2280.86 2347.49 2275.94 2353.56 2275.94 2359.64 2275.94 2364.56 2280.86 2364.56 2286.94Z" stroke="#ED7D31" stroke-width="3.4375" stroke-linejoin="round" stroke-miterlimit="10" fill="#ED7D31"/><path d="M3050.56 2176.94C3050.56 2183.01 3045.64 2187.94 3039.56 2187.94 3033.49 2187.94 3028.56 2183.01 3028.56 2176.94 3028.56 2170.86 3033.49 2165.94 3039.56 2165.94 3045.64 2165.94 3050.56 2170.86 3050.56 2176.94Z" stroke="#ED7D31" stroke-width="3.4375" stroke-linejoin="round" stroke-miterlimit="10" fill="#ED7D31"/></g><g clip-path="url(#clip9)"><path d="M293.5 2417.5 980.532 2352.58 1666.55 2145.57 2353.58 1799.56 3039.5 1325.5" stroke="#A5A5A5" stroke-width="6.875" stroke-linecap="round" stroke-linejoin="round" stroke-miterlimit="10" fill="none"/></g><g clip-path="url(#clip10)"><path d="M304.562 2417.94C304.562 2424.01 299.637 2428.94 293.562 2428.94 287.487 2428.94 282.562 2424.01 282.562 2417.94 282.562 2411.86 287.487 2406.94 293.562 2406.94 299.637 2406.94 304.562 2411.86 304.562 2417.94Z" stroke="#A5A5A5" stroke-width="3.4375" stroke-linejoin="round" stroke-miterlimit="10" fill="#A5A5A5"/><path d="M991.562 2352.94C991.562 2359.01 986.637 2363.94 980.562 2363.94 974.487 2363.94 969.562 2359.01 969.562 2352.94 969.562 2346.86 974.487 2341.94 980.562 2341.94 986.637 2341.94 991.562 2346.86 991.562 2352.94Z" stroke="#A5A5A5" stroke-width="3.4375" stroke-linejoin="round" stroke-miterlimit="10" fill="#A5A5A5"/><path d="M1677.56 2145.94C1677.56 2152.01 1672.64 2156.94 1666.56 2156.94 1660.49 2156.94 1655.56 2152.01 1655.56 2145.94 1655.56 2139.86 1660.49 2134.94 1666.56 2134.94 1672.64 2134.94 1677.56 2139.86 1677.56 2145.94Z" stroke="#A5A5A5" stroke-width="3.4375" stroke-linejoin="round" stroke-miterlimit="10" fill="#A5A5A5"/><path d="M2364.56 1799.94C2364.56 1806.01 2359.64 1810.94 2353.56 1810.94 2347.49 1810.94 2342.56 1806.01 2342.56 1799.94 2342.56 1793.86 2347.49 1788.94 2353.56 1788.94 2359.64 1788.94 2364.56 1793.86 2364.56 1799.94Z" stroke="#A5A5A5" stroke-width="3.4375" stroke-linejoin="round" stroke-miterlimit="10" fill="#A5A5A5"/><path d="M3050.56 1325.94C3050.56 1332.01 3045.64 1336.94 3039.56 1336.94 3033.49 1336.94 3028.56 1332.01 3028.56 1325.94 3028.56 1319.86 3033.49 1314.94 3039.56 1314.94 3045.64 1314.94 3050.56 1319.86 3050.56 1325.94Z" stroke="#A5A5A5" stroke-width="3.4375" stroke-linejoin="round" stroke-miterlimit="10" fill="#A5A5A5"/></g><g clip-path="url(#clip11)"><path d="M293.5 2417.5 980.532 2368.58 1666.55 2215.57 2353.58 1958.56 3039.5 1601.5" stroke="#FFC000" stroke-width="6.875" stroke-linecap="round" stroke-linejoin="round" stroke-miterlimit="10" fill="none"/></g><g clip-path="url(#clip12)"><path d="M304.562 2417.94C304.562 2424.01 299.637 2428.94 293.562 2428.94 287.487 2428.94 282.562 2424.01 282.562 2417.94 282.562 2411.86 287.487 2406.94 293.562 2406.94 299.637 2406.94 304.562 2411.86 304.562 2417.94Z" stroke="#FFC000" stroke-width="3.4375" stroke-linejoin="round" stroke-miterlimit="10" fill="#FFC000"/><path d="M991.562 2368.94C991.562 2375.01 986.637 2379.94 980.562 2379.94 974.487 2379.94 969.562 2375.01 969.562 2368.94 969.562 2362.86 974.487 2357.94 980.562 2357.94 986.637 2357.94 991.562 2362.86 991.562 2368.94Z" stroke="#FFC000" stroke-width="3.4375" stroke-linejoin="round" stroke-miterlimit="10" fill="#FFC000"/><path d="M1677.56 2215.94C1677.56 2222.01 1672.64 2226.94 1666.56 2226.94 1660.49 2226.94 1655.56 2222.01 1655.56 2215.94 1655.56 2209.86 1660.49 2204.94 1666.56 2204.94 1672.64 2204.94 1677.56 2209.86 1677.56 2215.94Z" stroke="#FFC000" stroke-width="3.4375" stroke-linejoin="round" stroke-miterlimit="10" fill="#FFC000"/><path d="M2364.56 1958.94C2364.56 1965.01 2359.64 1969.94 2353.56 1969.94 2347.49 1969.94 2342.56 1965.01 2342.56 1958.94 2342.56 1952.86 2347.49 1947.94 2353.56 1947.94 2359.64 1947.94 2364.56 1952.86 2364.56 1958.94Z" stroke="#FFC000" stroke-width="3.4375" stroke-linejoin="round" stroke-miterlimit="10" fill="#FFC000"/><path d="M3050.56 1601.94C3050.56 1608.01 3045.64 1612.94 3039.56 1612.94 3033.49 1612.94 3028.56 1608.01 3028.56 1601.94 3028.56 1595.86 3033.49 1590.94 3039.56 1590.94 3045.64 1590.94 3050.56 1595.86 3050.56 1601.94Z" stroke="#FFC000" stroke-width="3.4375" stroke-linejoin="round" stroke-miterlimit="10" fill="#FFC000"/></g><g clip-path="url(#clip13)"><text fill="#595959" font-family="Calibri,Calibri_MSFontService,sans-serif" font-weight="400" font-size="41" transform="matrix(1 0 0 1 234.644 2429)">0</text></g><g clip-path="url(#clip14)"><text fill="#595959" font-family="Calibri,Calibri_MSFontService,sans-serif" font-weight="400" font-size="41" transform="matrix(1 0 0 1 151.044 2272)">10000</text></g><g clip-path="url(#clip15)"><text fill="#595959" font-family="Calibri,Calibri_MSFontService,sans-serif" font-weight="400" font-size="41" transform="matrix(1 0 0 1 151.044 2116)">20000</text></g><g clip-path="url(#clip16)"><text fill="#595959" font-family="Calibri,Calibri_MSFontService,sans-serif" font-weight="400" font-size="41" transform="matrix(1 0 0 1 151.044 1959)">30000</text></g><g clip-path="url(#clip17)"><text fill="#595959" font-family="Calibri,Calibri_MSFontService,sans-serif" font-weight="400" font-size="41" transform="matrix(1 0 0 1 151.044 1802)">40000</text></g><g clip-path="url(#clip18)"><text fill="#595959" font-family="Calibri,Calibri_MSFontService,sans-serif" font-weight="400" font-size="41" transform="matrix(1 0 0 1 151.044 1645)">50000</text></g><g clip-path="url(#clip19)"><text fill="#595959" font-family="Calibri,Calibri_MSFontService,sans-serif" font-weight="400" font-size="41" transform="matrix(1 0 0 1 151.044 1489)">60000</text></g><g clip-path="url(#clip20)"><text fill="#595959" font-family="Calibri,Calibri_MSFontService,sans-serif" font-weight="400" font-size="41" transform="matrix(1 0 0 1 151.044 1332)">70000</text></g><g clip-path="url(#clip21)"><text fill="#595959" font-family="Calibri,Calibri_MSFontService,sans-serif" font-weight="400" font-size="41" transform="matrix(1 0 0 1 151.044 1175)">80000</text></g><g clip-path="url(#clip22)"><text fill="#595959" font-family="Calibri,Calibri_MSFontService,sans-serif" font-weight="400" font-size="41" transform="matrix(1 0 0 1 283.361 2483)">0</text></g><g clip-path="url(#clip23)"><text fill="#595959" font-family="Calibri,Calibri_MSFontService,sans-serif" font-weight="400" font-size="41" transform="matrix(1 0 0 1 584.784 2483)">20000</text></g><g clip-path="url(#clip24)"><text fill="#595959" font-family="Calibri,Calibri_MSFontService,sans-serif" font-weight="400" font-size="41" transform="matrix(1 0 0 1 928.007 2483)">40000</text></g><g clip-path="url(#clip25)"><text fill="#595959" font-family="Calibri,Calibri_MSFontService,sans-serif" font-weight="400" font-size="41" transform="matrix(1 0 0 1 1271.23 2483)">60000</text></g><g clip-path="url(#clip26)"><text fill="#595959" font-family="Calibri,Calibri_MSFontService,sans-serif" font-weight="400" font-size="41" transform="matrix(1 0 0 1 1614.45 2483)">80000</text></g><g clip-path="url(#clip27)"><text fill="#595959" font-family="Calibri,Calibri_MSFontService,sans-serif" font-weight="400" font-size="41" transform="matrix(1 0 0 1 1947.23 2483)">100000</text></g><g clip-path="url(#clip28)"><text fill="#595959" font-family="Calibri,Calibri_MSFontService,sans-serif" font-weight="400" font-size="41" transform="matrix(1 0 0 1 2290.45 2483)">120000</text></g><g clip-path="url(#clip29)"><text fill="#595959" font-family="Calibri,Calibri_MSFontService,sans-serif" font-weight="400" font-size="41" transform="matrix(1 0 0 1 2633.67 2483)">140000</text></g><g clip-path="url(#clip30)"><text fill="#595959" font-family="Calibri,Calibri_MSFontService,sans-serif" font-weight="400" font-size="41" transform="matrix(1 0 0 1 2976.9 2483)">160000</text></g><g clip-path="url(#clip31)"><text fill="#595959" font-family="Calibri,Calibri_MSFontService,sans-serif" font-weight="400" font-size="41" transform="matrix(1 0 0 1 3320.12 2483)">180000</text></g><g clip-path="url(#clip32)"><text fill="#595959" font-family="Calibri,Calibri_MSFontService,sans-serif" font-weight="400" font-size="46" transform="matrix(6.12323e-17 -1 1 6.12323e-17 125.354 1907)">Tiempo (ms)</text></g><g clip-path="url(#clip33)"><text fill="#595959" font-family="Calibri,Calibri_MSFontService,sans-serif" font-weight="400" font-size="46" transform="matrix(1 0 0 1 1664.49 2552)">Tamaño del vector</text></g><g clip-path="url(#clip34)"><text fill="#595959" font-family="Calibri,Calibri_MSFontService,sans-serif" font-weight="400" font-size="64" transform="matrix(1 0 0 1 1432.48 1089)">Ejecución ordenaVector.c</text></g><g clip-path="url(#clip35)"><path d="M1302.5 2659.5 1390.5 2659.5" stroke="#4472C4" stroke-width="6.875" stroke-linecap="round" stroke-linejoin="round" stroke-miterlimit="10" fill="none" fill-rule="evenodd"/></g><g clip-path="url(#clip36)"><path d="M1357 2659C1357 2665.07 1352.07 2670 1346 2670 1339.92 2670 1335 2665.07 1335 2659 1335 2652.92 1339.92 2648 1346 2648 1352.07 2648 1357 2652.92 1357 2659Z" stroke="#4472C4" stroke-width="3.4375" stroke-linejoin="round" stroke-miterlimit="10" fill="#4472C4"/></g><g clip-path="url(#clip37)"><text fill="#595959" font-family="Calibri,Calibri_MSFontService,sans-serif" font-weight="400" font-size="41" transform="matrix(1 0 0 1 1399.35 2671)">Sec_A</text></g><g clip-path="url(#clip38)"><path d="M1547.5 2659.5 1635.5 2659.5" stroke="#ED7D31" stroke-width="6.875" stroke-linecap="round" stroke-linejoin="round" stroke-miterlimit="10" fill="none" fill-rule="evenodd"/></g><g clip-path="url(#clip39)"><path d="M1602 2659C1602 2665.07 1597.08 2670 1591 2670 1584.93 2670 1580 2665.07 1580 2659 1580 2652.92 1584.93 2648 1591 2648 1597.08 2648 1602 2652.92 1602 2659Z" stroke="#ED7D31" stroke-width="3.4375" stroke-linejoin="round" stroke-miterlimit="10" fill="#ED7D31"/></g><g clip-path="url(#clip40)"><text fill="#595959" font-family="Calibri,Calibri_MSFontService,sans-serif" font-weight="400" font-size="41" transform="matrix(1 0 0 1 1644.43 2671)">Sec_B</text></g><g clip-path="url(#clip41)"><path d="M1790.5 2659.5 1878.5 2659.5" stroke="#A5A5A5" stroke-width="6.875" stroke-linecap="round" stroke-linejoin="round" stroke-miterlimit="10" fill="none" fill-rule="evenodd"/></g><g clip-path="url(#clip42)"><path d="M1845 2659C1845 2665.07 1840.08 2670 1834 2670 1827.93 2670 1823 2665.07 1823 2659 1823 2652.92 1827.93 2648 1834 2648 1840.08 2648 1845 2652.92 1845 2659Z" stroke="#A5A5A5" stroke-width="3.4375" stroke-linejoin="round" stroke-miterlimit="10" fill="#A5A5A5"/></g><g clip-path="url(#clip43)"><text fill="#595959" font-family="Calibri,Calibri_MSFontService,sans-serif" font-weight="400" font-size="41" transform="matrix(1 0 0 1 1888.06 2671)">Sec_C</text></g><g clip-path="url(#clip44)"><path d="M2033.5 2659.5 2121.5 2659.5" stroke="#FFC000" stroke-width="6.875" stroke-linecap="round" stroke-linejoin="round" stroke-miterlimit="10" fill="none" fill-rule="evenodd"/></g><g clip-path="url(#clip45)"><path d="M2088 2659C2088 2665.07 2083.07 2670 2077 2670 2070.93 2670 2066 2665.07 2066 2659 2066 2652.92 2070.93 2648 2077 2648 2083.07 2648 2088 2652.92 2088 2659Z" stroke="#FFC000" stroke-width="3.4375" stroke-linejoin="round" stroke-miterlimit="10" fill="#FFC000"/></g><g clip-path="url(#clip46)"><text fill="#595959" font-family="Calibri,Calibri_MSFontService,sans-serif" font-weight="400" font-size="41" transform="matrix(1 0 0 1 2131.26 2671)">Sec_D</text></g><rect x="24.4999" y="993.5" width="3472" height="1733" stroke="#D9D9D9" stroke-width="3.4375" stroke-linejoin="round" stroke-miterlimit="10" fill="none"/></g></svg>