<svg width="4211" height="1742" xmlns="http://www.w3.org/2000/svg" xmlns:xlink="http://www.w3.org/1999/xlink" overflow="hidden"><defs><clipPath id="clip0"><rect x="26" y="986" width="4211" height="1742"/></clipPath><clipPath id="clip1"><rect x="27" y="986" width="4208" height="1739"/></clipPath><clipPath id="clip2"><rect x="27" y="986" width="4208" height="1739"/></clipPath><clipPath id="clip3"><rect x="297" y="1156" width="3891" height="1265"/></clipPath><clipPath id="clip4"><rect x="297" y="1156" width="3891" height="1265"/></clipPath><clipPath id="clip5"><rect x="297" y="1156" width="3891" height="1265"/></clipPath><clipPath id="clip6"><rect x="297" y="1156" width="3891" height="1265"/></clipPath><clipPath id="clip7"><rect x="297" y="1156" width="3891" height="1265"/></clipPath><clipPath id="clip8"><rect x="27" y="986" width="4208" height="1739"/></clipPath><clipPath id="clip9"><rect x="27" y="986" width="4208" height="1739"/></clipPath><clipPath id="clip10"><rect x="27" y="986" width="4208" height="1739"/></clipPath><clipPath id="clip11"><rect x="27" y="986" width="4208" height="1739"/></clipPath><clipPath id="clip12"><rect x="27" y="986" width="4208" height="1739"/></clipPath><clipPath id="clip13"><rect x="27" y="986" width="4208" height="1739"/></clipPath><clipPath id="clip14"><rect x="27" y="986" width="4208" height="1739"/></clipPath><clipPath id="clip15"><rect x="27" y="986" width="4208" height="1739"/></clipPath><clipPath id="clip16"><rect x="27" y="986" width="4208" height="1739"/></clipPath><clipPath id="clip17"><rect x="27" y="986" width="4208" height="1739"/></clipPath><clipPath id="clip18"><rect x="27" y="986" width="4208" height="1739"/></clipPath><clipPath id="clip19"><rect x="27" y="986" width="4208" height="1739"/></clipPath><clipPath id="clip20"><rect x="27" y="986" width="4208" height="1739"/></clipPath><clipPath id="clip21"><rect x="27" y="986" width="4208" height="1739"/></clipPath><clipPath id="clip22"><rect x="27" y="986" width="4208" height="1739"/></clipPath><clipPath id="clip23"><rect x="27" y="986" width="4208" height="1739"/></clipPath><clipPath id="clip24"><rect x="27" y="986" width="4208" height="1739"/></clipPath><clipPath id="clip25"><rect x="27" y="986" width="4208" height="1739"/></clipPath><clipPath id="clip26"><rect x="27" y="986" width="4208" height="1739"/></clipPath><clipPath id="clip27"><rect x="27" y="986" width="4208" height="1739"/></clipPath><clipPath id="clip28"><rect x="27" y="986" width="4208" height="1739"/></clipPath><clipPath id="clip29"><rect x="27" y="986" width="4208" height="1739"/></clipPath><clipPath id="clip30"><rect x="27" y="986" width="4208" height="1739"/></clipPath><clipPath id="clip31"><rect x="27" y="986" width="4208" height="1739"/></clipPath><clipPath id="clip32"><rect x="27" y="986" width="4208" height="1739"/></clipPath><clipPath id="clip33"><rect x="27" y="986" width="4208" height="1739"/></clipPath><clipPath id="clip34"><rect x="27" y="986" width="4208" height="1739"/></clipPath></defs><g clip-path="url(#clip0)" transform="translate(-26 -986)"><rect x="27.0002" y="987" width="4208" height="1739" fill="#FFFFFF"/><g clip-path="url(#clip1)"><path d="M297.5 2259.57 4184.5 2259.57M297.5 2102.57 4184.5 2102.57M297.5 1944.56 4184.5 1944.56M297.5 1787.56 4184.5 1787.56M297.5 1629.55 4184.5 1629.55M297.5 1471.55 4184.5 1471.55M297.5 1314.54 4184.5 1314.54M297.5 1156.5 4184.5 1156.5" stroke="#D9D9D9" stroke-width="3.4375" stroke-linejoin="round" stroke-miterlimit="10" fill="none"/></g><g clip-path="url(#clip2)"><path d="M297.5 2417.5 4184.5 2417.5" stroke="#D9D9D9" stroke-width="3.4375" stroke-linejoin="round" stroke-miterlimit="10" fill="none" fill-rule="evenodd"/></g><g clip-path="url(#clip3)"><path d="M686 2418 1463.05 2362.08 2241.07 2189.07 3018.1 1931.06 3796 1530" stroke="#4472C4" stroke-width="10.3125" stroke-linecap="round" stroke-linejoin="round" stroke-miterlimit="10" fill="none"/></g><g clip-path="url(#clip4)"><path d="M686 2418 1463.05 2403.08 2241.07 2357.08 3018.1 2283.07 3796 2185" stroke="#ED7D31" stroke-width="10.3125" stroke-linecap="round" stroke-linejoin="round" stroke-miterlimit="10" fill="none"/></g><g clip-path="url(#clip5)"><path d="M686 2418 1463.05 2353.08 2241.07 2142.07 3018.1 1798.06 3796 1336" stroke="#A5A5A5" stroke-width="10.3125" stroke-linecap="round" stroke-linejoin="round" stroke-miterlimit="10" fill="none"/></g><g clip-path="url(#clip6)"><path d="M686 2418 1463.05 2404.08 2241.07 2361.08 3018.1 2280.07 3796 2216" stroke="#FFC000" stroke-width="10.3125" stroke-linecap="round" stroke-linejoin="round" stroke-miterlimit="10" fill="none"/></g><g clip-path="url(#clip7)"><path d="M686 2418 1463.05 2401.08 2241.07 2339.08 3018.1 2255.07 3796 2145" stroke="#5B9BD5" stroke-width="10.3125" stroke-linecap="round" stroke-linejoin="round" stroke-miterlimit="10" fill="none"/></g><g clip-path="url(#clip8)"><text fill="#595959" font-family="Calibri,Calibri_MSFontService,sans-serif" font-weight="400" font-size="41" transform="matrix(1 0 0 1 238.081 2429)">0</text></g><g clip-path="url(#clip9)"><text fill="#595959" font-family="Calibri,Calibri_MSFontService,sans-serif" font-weight="400" font-size="41" transform="matrix(1 0 0 1 154.481 2272)">10000</text></g><g clip-path="url(#clip10)"><text fill="#595959" font-family="Calibri,Calibri_MSFontService,sans-serif" font-weight="400" font-size="41" transform="matrix(1 0 0 1 154.481 2114)">20000</text></g><g clip-path="url(#clip11)"><text fill="#595959" font-family="Calibri,Calibri_MSFontService,sans-serif" font-weight="400" font-size="41" transform="matrix(1 0 0 1 154.481 1956)">30000</text></g><g clip-path="url(#clip12)"><text fill="#595959" font-family="Calibri,Calibri_MSFontService,sans-serif" font-weight="400" font-size="41" transform="matrix(1 0 0 1 154.481 1799)">40000</text></g><g clip-path="url(#clip13)"><text fill="#595959" font-family="Calibri,Calibri_MSFontService,sans-serif" font-weight="400" font-size="41" transform="matrix(1 0 0 1 154.481 1641)">50000</text></g><g clip-path="url(#clip14)"><text fill="#595959" font-family="Calibri,Calibri_MSFontService,sans-serif" font-weight="400" font-size="41" transform="matrix(1 0 0 1 154.481 1483)">60000</text></g><g clip-path="url(#clip15)"><text fill="#595959" font-family="Calibri,Calibri_MSFontService,sans-serif" font-weight="400" font-size="41" transform="matrix(1 0 0 1 154.481 1326)">70000</text></g><g clip-path="url(#clip16)"><text fill="#595959" font-family="Calibri,Calibri_MSFontService,sans-serif" font-weight="400" font-size="41" transform="matrix(1 0 0 1 154.481 1168)">80000</text></g><g clip-path="url(#clip17)"><text fill="#595959" font-family="Calibri,Calibri_MSFontService,sans-serif" font-weight="400" font-size="41" transform="matrix(1 0 0 1 665.081 2483)">10</text></g><g clip-path="url(#clip18)"><text fill="#595959" font-family="Calibri,Calibri_MSFontService,sans-serif" font-weight="400" font-size="41" transform="matrix(1 0 0 1 1411.2 2483)">40010</text></g><g clip-path="url(#clip19)"><text fill="#595959" font-family="Calibri,Calibri_MSFontService,sans-serif" font-weight="400" font-size="41" transform="matrix(1 0 0 1 2188.67 2483)">80010</text></g><g clip-path="url(#clip20)"><text fill="#595959" font-family="Calibri,Calibri_MSFontService,sans-serif" font-weight="400" font-size="41" transform="matrix(1 0 0 1 2955.68 2483)">120010</text></g><g clip-path="url(#clip21)"><text fill="#595959" font-family="Calibri,Calibri_MSFontService,sans-serif" font-weight="400" font-size="41" transform="matrix(1 0 0 1 3733.15 2483)">160010</text></g><g clip-path="url(#clip22)"><text fill="#595959" font-family="Calibri,Calibri_MSFontService,sans-serif" font-weight="400" font-size="46" transform="matrix(6.12323e-17 -1 1 6.12323e-17 128.792 1904)">Tiempo (ms)</text></g><g clip-path="url(#clip23)"><text fill="#595959" font-family="Calibri,Calibri_MSFontService,sans-serif" font-weight="400" font-size="46" transform="matrix(1 0 0 1 2067.09 2552)">Tamaño del vector</text></g><g clip-path="url(#clip24)"><text fill="#595959" font-family="Calibri,Calibri_MSFontService,sans-serif" font-weight="400" font-size="64" transform="matrix(1 0 0 1 1739.34 1082)">Ejecución ordenaVectorOMP.c</text></g><g clip-path="url(#clip25)"><path d="M1533 2660 1621 2660" stroke="#4472C4" stroke-width="10.3125" stroke-linecap="round" stroke-linejoin="round" stroke-miterlimit="10" fill="none" fill-rule="evenodd"/></g><g clip-path="url(#clip26)"><text fill="#595959" font-family="Calibri,Calibri_MSFontService,sans-serif" font-weight="400" font-size="41" transform="matrix(1 0 0 1 1629.85 2671)">Par_A</text></g><g clip-path="url(#clip27)"><path d="M1779 2660 1867 2660" stroke="#ED7D31" stroke-width="10.3125" stroke-linecap="round" stroke-linejoin="round" stroke-miterlimit="10" fill="none" fill-rule="evenodd"/></g><g clip-path="url(#clip28)"><text fill="#595959" font-family="Calibri,Calibri_MSFontService,sans-serif" font-weight="400" font-size="41" transform="matrix(1 0 0 1 1875.79 2671)">Par_B</text></g><g clip-path="url(#clip29)"><path d="M2023 2660 2111 2660" stroke="#A5A5A5" stroke-width="10.3125" stroke-linecap="round" stroke-linejoin="round" stroke-miterlimit="10" fill="none" fill-rule="evenodd"/></g><g clip-path="url(#clip30)"><text fill="#595959" font-family="Calibri,Calibri_MSFontService,sans-serif" font-weight="400" font-size="41" transform="matrix(1 0 0 1 2120.28 2671)">Par_C</text></g><g clip-path="url(#clip31)"><path d="M2267 2660 2355 2660" stroke="#FFC000" stroke-width="10.3125" stroke-linecap="round" stroke-linejoin="round" stroke-miterlimit="10" fill="none" fill-rule="evenodd"/></g><g clip-path="url(#clip32)"><text fill="#595959" font-family="Calibri,Calibri_MSFontService,sans-serif" font-weight="400" font-size="41" transform="matrix(1 0 0 1 2364.34 2671)">Par_D</text></g><g clip-path="url(#clip33)"><path d="M2514 2660 2602 2660" stroke="#5B9BD5" stroke-width="10.3125" stroke-linecap="round" stroke-linejoin="round" stroke-miterlimit="10" fill="none" fill-rule="evenodd"/></g><g clip-path="url(#clip34)"><text fill="#595959" font-family="Calibri,Calibri_MSFontService,sans-serif" font-weight="400" font-size="41" transform="matrix(1 0 0 1 2611.77 2671)">Par_Dm</text></g><rect x="27.5" y="987.5" width="4208" height="1739" stroke="#D9D9D9" stroke-width="3.4375" stroke-linejoin="round" stroke-miterlimit="10" fill="none"/></g></svg>